<svg width="33" height="29" viewBox="0 0 33 29" fill="none" xmlns="http://www.w3.org/2000/svg">
<path d="M10.2939 6.79824H5.85742C3.4072 6.79824 1.4209 8.78454 1.4209 11.2348V23.3941C1.4209 25.8444 3.4072 27.8307 5.85742 27.8307H26.5612C29.0114 27.8307 30.9977 25.8444 30.9977 23.3941V11.2348C30.9977 8.78454 29.0114 6.79824 26.5612 6.79824H22.1247M10.2939 6.79824L10.424 5.14408C10.4746 4.50186 10.6388 3.85508 11.0698 3.37624C11.9011 2.45261 13.095 1.90771 14.3675 1.90771H18.0512C19.3236 1.90771 20.5176 2.45261 21.3488 3.37624C21.7798 3.85508 21.9441 4.50186 21.9946 5.14408L22.1247 6.79824M10.2939 6.79824H22.1247M25.0972 11.5634H25.0824M20.6458 17.4788C20.6458 19.929 18.6595 21.9153 16.2093 21.9153C13.7591 21.9153 11.7728 19.929 11.7728 17.4788C11.7728 15.0285 13.7591 13.0422 16.2093 13.0422C18.6595 13.0422 20.6458 15.0285 20.6458 17.4788Z" stroke="#2C2C2C" stroke-width="2.21826" stroke-linecap="round" stroke-linejoin="round"/>
</svg>
