<svg width="25" height="24" viewBox="0 0 25 24" fill="none" xmlns="http://www.w3.org/2000/svg">
<path d="M24.0202 16.6572C22.8171 19.4 20.5952 21.6157 17.786 22.8742C14.9769 24.1327 11.7808 24.3442 8.81826 23.4677C5.85576 22.5911 3.33825 20.689 1.75447 18.1307C0.170697 15.5724 -0.36633 12.5404 0.247652 9.62332C0.861635 6.70626 2.58282 4.11229 5.07704 2.34501C7.57127 0.57774 10.6606 -0.236736 13.7452 0.0597115C16.8298 0.356159 19.6896 1.74238 21.7694 3.94924C23.8492 6.1561 25.0005 9.02614 25 12.0022C25.0019 13.6012 24.6687 15.1843 24.0202 16.6572ZM24.4122 12.0022C24.4122 11.9982 24.4122 11.9945 24.4122 11.9906H18.1232C18.1232 11.9945 18.1232 11.9982 18.1232 12.0022C18.1232 14.0524 17.888 16.0242 17.4443 17.7688H22.7768C23.8498 16.0218 24.4146 14.0303 24.4122 12.0022ZM12.5394 0.604233C11.9046 0.604233 11.2807 0.88636 10.6853 1.44215C10.0828 2.00471 9.53915 2.81667 9.06894 3.85546C8.81101 4.4307 8.59162 5.02118 8.41211 5.62327H16.6673C16.4878 5.02118 16.2684 4.4307 16.0104 3.85546C15.5402 2.81667 14.996 2.00471 14.3941 1.44215C13.7981 0.88636 13.1742 0.604233 12.5394 0.604233ZM8.25253 6.18809C7.83316 7.76969 7.5913 9.55612 7.55016 11.4263H17.5289C17.4878 9.55612 17.2456 7.76969 16.8265 6.18809H8.25253ZM7.5434 11.9906C7.5434 11.9945 7.5434 11.9982 7.5434 12.0022C7.5434 14.0617 7.78556 16.0366 8.2396 17.7688H16.8389C17.2929 16.0366 17.5354 14.0617 17.5354 12.0022C17.5354 11.9982 17.5354 11.9945 17.5354 11.9906H7.5434ZM12.5394 23.4001C13.1742 23.4001 13.7981 23.118 14.3935 22.5622C14.996 21.9996 15.5396 21.1876 16.0098 20.1489C16.2743 19.5584 16.4983 18.9521 16.6805 18.3336H8.39771C8.57987 18.9521 8.8039 19.5584 9.06835 20.1489C9.53856 21.1876 10.0828 21.9996 10.6847 22.5622C11.2807 23.118 11.9046 23.4001 12.5394 23.4001ZM22.4071 18.3331H17.2915C17.0938 19.029 16.8457 19.7107 16.5491 20.3734C15.9614 21.6737 15.2531 22.6457 14.4737 23.2483C17.772 22.7272 20.6164 20.8965 22.4071 18.3331ZM10.6048 23.2483C9.82568 22.6457 9.11831 21.6737 8.52937 20.3734C8.23285 19.7107 7.9849 19.0289 7.78732 18.3331H2.67171C4.46234 20.8965 7.30682 22.7272 10.6048 23.2483ZM2.30201 17.7688H7.63479C7.19074 16.0242 6.95563 14.0524 6.95563 12.0022C6.95563 11.9982 6.95563 11.9945 6.95563 11.9906H0.666556C0.666556 11.9945 0.666556 11.9982 0.666556 12.0022C0.664148 14.0303 1.22896 16.0218 2.30201 17.7688ZM0.682132 11.4263H6.9621C7.00236 9.5643 7.23776 7.78069 7.64655 6.18809H2.3314C1.34367 7.77841 0.777371 9.57705 0.682132 11.4263ZM2.70492 5.62383H7.80142C7.99652 4.94444 8.23983 4.27866 8.52966 3.63117C9.11743 2.33085 9.82568 1.35892 10.6051 0.7563C7.3271 1.274 4.49731 3.08526 2.70492 5.62383ZM14.474 0.756018C15.2531 1.35864 15.9605 2.33057 16.5494 3.63089C16.8392 4.27838 17.0826 4.94415 17.2777 5.62355H22.3739C20.5815 3.08525 17.7517 1.274 14.474 0.756018ZM22.7474 6.18809H17.4322C17.841 7.78069 18.0764 9.56515 18.1167 11.4263H24.3967C24.3014 9.57705 23.7351 7.77841 22.7474 6.18809Z" fill="#2C2C2C"/>
</svg>
