<svg width="35" height="27" viewBox="0 0 35 27" fill="none" xmlns="http://www.w3.org/2000/svg">
<path d="M17.8547 0.929359C17.4667 0.929359 16.8508 0.952941 16.2205 1.41309L1.3334 12.2815C1.24263 12.3325 1.16546 12.3995 1.10703 12.4782C1.04859 12.5569 1.01022 12.6454 0.994457 12.7378C0.978696 12.8302 0.985909 12.9245 1.01562 13.0144C1.04532 13.1042 1.09684 13.1876 1.16676 13.259C1.23667 13.3303 1.32338 13.388 1.42113 13.4283C1.51887 13.4685 1.62542 13.4903 1.73369 13.4923C1.84196 13.4943 1.94948 13.4763 2.04911 13.4397C2.14874 13.4031 2.2382 13.3486 2.31156 13.2799L17.1986 2.41142C17.2959 2.34038 17.8668 2.24675 17.8547 2.24675C17.8154 2.24675 18.0188 2.2509 18.1768 2.28791C18.3348 2.32494 18.4882 2.39496 18.5108 2.41142L33.3979 13.2799C33.4712 13.3486 33.5607 13.4031 33.6603 13.4397C33.7599 13.4763 33.8675 13.4943 33.9757 13.4923C34.084 13.4903 34.1906 13.4685 34.2883 13.4283C34.386 13.388 34.4728 13.3303 34.5427 13.259C34.6126 13.1876 34.6641 13.1042 34.6938 13.0144C34.7235 12.9245 34.7307 12.8302 34.715 12.7378C34.6992 12.6454 34.6608 12.5569 34.6024 12.4782C34.544 12.3995 34.4668 12.3325 34.376 12.2815L19.489 1.41309C19.1768 1.18517 18.8544 1.08854 18.5704 1.02199C18.2865 0.955437 18.082 0.929359 17.8547 0.929359ZM5.62775 13.321C5.52749 13.3224 5.42852 13.3408 5.3365 13.3751C5.24447 13.4095 5.16119 13.4591 5.0914 13.5212C5.02162 13.5834 4.9667 13.6567 4.92978 13.7372C4.89286 13.8176 4.87467 13.9035 4.87624 13.99V25.9597C4.87626 26.1344 4.9567 26.3019 5.09987 26.4255C5.24303 26.549 5.43721 26.6184 5.63968 26.6184H30.0698C30.2722 26.6184 30.4664 26.549 30.6096 26.4255C30.7527 26.3019 30.8332 26.1344 30.8332 25.9597V13.99C30.8346 13.9027 30.8159 13.8161 30.7782 13.7351C30.7405 13.6541 30.6845 13.5804 30.6134 13.5182C30.5424 13.456 30.4578 13.4067 30.3644 13.373C30.2711 13.3393 30.1709 13.3219 30.0698 13.3219C29.9686 13.3219 29.8684 13.3393 29.7751 13.373C29.6817 13.4067 29.5971 13.456 29.5261 13.5182C29.455 13.5804 29.399 13.6541 29.3613 13.7351C29.3236 13.8161 29.3049 13.9027 29.3063 13.99V25.301H6.40312V13.99C6.40472 13.9018 6.38575 13.8142 6.34736 13.7324C6.30896 13.6506 6.2519 13.5763 6.17958 13.5139C6.10726 13.4515 6.02115 13.4023 5.92635 13.3691C5.83156 13.336 5.73001 13.3197 5.62775 13.321Z" fill="white"/>
</svg>
