<svg width="28" height="16" viewBox="0 0 28 16" fill="none" xmlns="http://www.w3.org/2000/svg">
<path d="M5.41391 5.48435C6.92588 5.48435 8.15609 4.25414 8.15609 2.74218C8.15609 1.23021 6.92588 0 5.41391 0C3.90195 0 2.67174 1.23021 2.67174 2.74218C2.67174 4.25444 3.90195 5.48435 5.41391 5.48435ZM5.41391 0.774501C6.499 0.774501 7.38189 1.65739 7.38189 2.74248C7.38189 3.82757 6.499 4.71046 5.41391 4.71046C4.32882 4.71046 3.44594 3.82757 3.44594 2.74248C3.44624 1.65709 4.32882 0.774501 5.41391 0.774501ZM21.9095 5.48435C23.4214 5.48435 24.6516 4.25414 24.6516 2.74218C24.6516 1.23021 23.4214 0 21.9095 0C20.3975 0 19.1673 1.23021 19.1673 2.74218C19.1673 4.25444 20.3972 5.48435 21.9095 5.48435ZM21.9095 0.774501C22.9946 0.774501 23.8775 1.65739 23.8775 2.74248C23.8775 3.82757 22.9946 4.71046 21.9095 4.71046C20.8244 4.71046 19.9415 3.82757 19.9415 2.74248C19.9415 1.65709 20.8244 0.774501 21.9095 0.774501ZM21.9095 5.83714C20.0065 5.83714 18.2753 6.82295 17.291 8.43571C16.2457 7.7699 15.007 7.3825 13.6787 7.3825C12.3398 7.3825 11.0917 7.77628 10.0412 8.4518C9.6052 7.73499 9.00953 7.12474 8.29605 6.67297C7.43199 6.12618 6.43555 5.83714 5.41422 5.83714C2.42885 5.83714 0 8.26599 0 11.2514V12.3477C0 12.5614 0.173359 12.7348 0.387099 12.7348H7.07889C6.98417 13.1844 6.93347 13.6502 6.93347 14.1277V15.5143C6.93347 15.728 7.10682 15.9014 7.32056 15.9014H20.0368C20.2506 15.9014 20.4239 15.728 20.4239 15.5143V14.1277C20.4239 13.6502 20.3732 13.1844 20.2785 12.7348H26.9366C27.1503 12.7348 27.3237 12.5614 27.3237 12.3477V11.2514C27.3237 8.26599 24.8948 5.83714 21.9095 5.83714ZM0.774197 11.9606V11.2514C0.774197 8.69287 2.85572 6.61134 5.41422 6.61134C7.07282 6.61134 8.5775 7.4833 9.41363 8.9066C8.44634 9.69811 7.70372 10.7531 7.29294 11.9603L0.774197 11.9606ZM19.6494 15.1272H7.70766V14.1277C7.70766 10.8354 10.3861 8.157 13.6787 8.157C16.971 8.157 19.6497 10.8354 19.6497 14.1277L19.6494 15.1272ZM26.5492 11.9606H20.0645C19.6503 10.7437 18.8989 9.68232 17.9207 8.88869C18.7592 7.47631 20.2597 6.61164 21.9095 6.61164C24.468 6.61164 26.5495 8.69317 26.5495 11.2517L26.5492 11.9606ZM13.6787 6.73157C15.5346 6.73157 17.0445 5.22173 17.0445 3.36578C17.0445 1.50984 15.5346 0 13.6787 0C11.8227 0 10.3129 1.50984 10.3129 3.36578C10.3129 5.22173 11.8227 6.73157 13.6787 6.73157ZM13.6787 0.774501C15.1075 0.774501 16.27 1.93701 16.27 3.36578C16.27 4.79456 15.1075 5.95707 13.6787 5.95707C12.2499 5.95707 11.0874 4.79456 11.0874 3.36578C11.0871 1.93701 12.2496 0.774501 13.6787 0.774501Z" fill="#2C2C2C"/>
</svg>
