<svg width="34" height="20" viewBox="0 0 34 20" fill="none" xmlns="http://www.w3.org/2000/svg">
<path d="M6.67208 7.09741C8.53541 7.09741 10.0515 5.5813 10.0515 3.71797C10.0515 1.85463 8.53541 0.338524 6.67208 0.338524C4.80874 0.338524 3.29264 1.85463 3.29264 3.71797C3.29264 5.58167 4.80874 7.09741 6.67208 7.09741ZM6.67208 1.29301C8.00934 1.29301 9.0974 2.38108 9.0974 3.71834C9.0974 5.0556 8.00934 6.14366 6.67208 6.14366C5.33482 6.14366 4.24675 5.0556 4.24675 3.71834C4.24713 2.38071 5.33482 1.29301 6.67208 1.29301ZM27.0011 7.09741C28.8644 7.09741 30.3806 5.5813 30.3806 3.71797C30.3806 1.85463 28.8644 0.338524 27.0011 0.338524C25.1378 0.338524 23.6217 1.85463 23.6217 3.71797C23.6217 5.58167 25.1374 7.09741 27.0011 7.09741ZM27.0011 1.29301C28.3384 1.29301 29.4264 2.38108 29.4264 3.71834C29.4264 5.0556 28.3384 6.14366 27.0011 6.14366C25.6639 6.14366 24.5758 5.0556 24.5758 3.71834C24.5758 2.38071 25.6639 1.29301 27.0011 1.29301ZM27.0011 7.53218C24.6559 7.53218 22.5224 8.74709 21.3093 10.7346C20.0211 9.91411 18.4945 9.43667 16.8575 9.43667C15.2075 9.43667 13.6693 9.92196 12.3747 10.7545C11.8374 9.87108 11.1033 9.11901 10.224 8.56225C9.15914 7.88839 7.93114 7.53218 6.67245 7.53218C2.99331 7.53218 0 10.5255 0 14.2046V15.5557C0 15.8191 0.213647 16.0328 0.477058 16.0328H8.72399C8.60725 16.5869 8.54476 17.1609 8.54476 17.7495V19.4583C8.54476 19.7217 8.75841 19.9353 9.02182 19.9353H24.6933C24.9567 19.9353 25.1703 19.7217 25.1703 19.4583V17.7495C25.1703 17.1609 25.1078 16.5869 24.9911 16.0328H33.1965C33.4599 16.0328 33.6736 15.8191 33.6736 15.5557V14.2046C33.6736 10.5255 30.6803 7.53218 27.0011 7.53218ZM0.954116 15.0787V14.2046C0.954116 11.0516 3.51938 8.4863 6.67245 8.4863C8.71651 8.4863 10.5709 9.5609 11.6013 11.315C10.4092 12.2904 9.49402 13.5906 8.98777 15.0783L0.954116 15.0787ZM24.2158 18.9812H9.49888V17.7495C9.49888 13.692 12.7997 10.3912 16.8575 10.3912C20.915 10.3912 24.2162 13.692 24.2162 17.7495L24.2158 18.9812ZM32.7191 15.0787H24.7273C24.217 13.579 23.2909 12.271 22.0854 11.2929C23.1188 9.55229 24.9679 8.48667 27.0011 8.48667C30.1542 8.48667 32.7194 11.0519 32.7194 14.205L32.7191 15.0787ZM16.8575 8.63447C19.1448 8.63447 21.0055 6.77375 21.0055 4.4865C21.0055 2.19924 19.1448 0.338524 16.8575 0.338524C14.5703 0.338524 12.7096 2.19924 12.7096 4.4865C12.7096 6.77375 14.5703 8.63447 16.8575 8.63447ZM16.8575 1.29301C18.6184 1.29301 20.051 2.72568 20.051 4.4865C20.051 6.24731 18.6184 7.67998 16.8575 7.67998C15.0967 7.67998 13.6641 6.24731 13.6641 4.4865C13.6637 2.72568 15.0964 1.29301 16.8575 1.29301Z" fill="white"/>
</svg>
