<svg width="28" height="21" viewBox="0 0 28 21" fill="none" xmlns="http://www.w3.org/2000/svg">
<path d="M14.2988 0C13.984 0 13.4842 0.0191345 12.9728 0.392511L0.892951 9.21148C0.819298 9.25283 0.756684 9.30723 0.709267 9.37106C0.661849 9.43489 0.630712 9.5067 0.617924 9.58171C0.605136 9.65672 0.610988 9.73322 0.635093 9.80613C0.659198 9.87904 0.701004 9.94669 0.757735 10.0046C0.814465 10.0625 0.884823 10.1093 0.964137 10.142C1.04345 10.1746 1.1299 10.1923 1.21776 10.1939C1.30561 10.1955 1.39286 10.181 1.4737 10.1513C1.55455 10.1215 1.62714 10.0773 1.68666 10.0216L13.7665 1.20259C13.8454 1.14495 14.3086 1.06897 14.2988 1.06897C14.2669 1.06897 14.432 1.07233 14.5602 1.10237C14.6883 1.13242 14.8129 1.18923 14.8312 1.20259L26.911 10.0216C26.9705 10.0773 27.0431 10.1215 27.1239 10.1513C27.2048 10.181 27.292 10.1955 27.3799 10.1939C27.4677 10.1923 27.5542 10.1746 27.6335 10.142C27.7128 10.1093 27.7832 10.0625 27.8399 10.0046C27.8966 9.94669 27.9384 9.87904 27.9625 9.80613C27.9867 9.73322 27.9925 9.65672 27.9797 9.58171C27.9669 9.5067 27.9358 9.43489 27.8884 9.37106C27.841 9.30723 27.7783 9.25283 27.7047 9.21148L15.6249 0.392511C15.3716 0.207574 15.11 0.129163 14.8796 0.0751617C14.6492 0.0211602 14.4833 0 14.2988 0ZM4.37751 10.055C4.29616 10.0561 4.21585 10.071 4.14118 10.0988C4.06651 10.1267 3.99893 10.167 3.9423 10.2174C3.88568 10.2678 3.84111 10.3273 3.81116 10.3926C3.7812 10.4579 3.76644 10.5276 3.76771 10.5978V20.3103C3.76773 20.4521 3.833 20.588 3.94917 20.6883C4.06534 20.7885 4.2229 20.8448 4.38719 20.8448H24.2105C24.3747 20.8448 24.5323 20.7885 24.6485 20.6883C24.7646 20.588 24.8299 20.4521 24.8299 20.3103V10.5978C24.8311 10.527 24.8159 10.4566 24.7853 10.3909C24.7547 10.3252 24.7093 10.2654 24.6516 10.2149C24.594 10.1645 24.5253 10.1245 24.4496 10.0971C24.3738 10.0698 24.2925 10.0557 24.2105 10.0557C24.1284 10.0557 24.0471 10.0698 23.9713 10.0971C23.8956 10.1245 23.8269 10.1645 23.7693 10.2149C23.7116 10.2654 23.6662 10.3252 23.6356 10.3909C23.605 10.4566 23.5898 10.527 23.591 10.5978V19.7759H5.00667V10.5978C5.00796 10.5262 4.99258 10.4551 4.96142 10.3887C4.93026 10.3224 4.88397 10.2621 4.82528 10.2115C4.7666 10.1608 4.69672 10.1209 4.6198 10.094C4.54289 10.0671 4.46049 10.0538 4.37751 10.055Z" fill="#2C2C2C"/>
</svg>
