<svg width="31" height="30" viewBox="0 0 31 30" fill="none" xmlns="http://www.w3.org/2000/svg">
<path d="M29.6023 20.5283C28.1196 23.9084 25.3814 26.6391 21.9194 28.19C18.4574 29.741 14.5185 30.0017 10.8676 28.9214C7.21661 27.8412 4.11404 25.497 2.1622 22.3442C0.210366 19.1913 -0.451463 15.4547 0.305205 11.8597C1.06187 8.26476 3.18305 5.06796 6.25692 2.88998C9.33079 0.712008 13.138 -0.291748 16.9395 0.0735931C20.7409 0.438932 24.2653 2.1473 26.8284 4.86702C29.3916 7.58675 30.8105 11.1238 30.8098 14.7914C30.8122 16.7621 30.4016 18.7131 29.6023 20.5283ZM30.0855 14.7914C30.0855 14.7865 30.0855 14.782 30.0855 14.7771H22.3349C22.3349 14.782 22.3349 14.7865 22.3349 14.7914C22.3349 17.3181 22.0451 19.7481 21.4982 21.8982H28.07C29.3924 19.7452 30.0885 17.2908 30.0855 14.7914ZM15.4535 0.744658C14.6712 0.744658 13.9023 1.09235 13.1685 1.7773C12.426 2.4706 11.756 3.47125 11.1765 4.75146C10.8586 5.46038 10.5883 6.18807 10.367 6.93009H20.5406C20.3194 6.18807 20.049 5.46038 19.7312 4.75146C19.1517 3.47125 18.4809 2.4706 17.7392 1.7773C17.0047 1.09235 16.2358 0.744658 15.4535 0.744658ZM10.1704 7.62617C9.65355 9.57533 9.35547 11.7769 9.30477 14.0818H21.6025C21.5518 11.7769 21.2534 9.57533 20.7369 7.62617H10.1704ZM9.29644 14.7771C9.29644 14.782 9.29644 14.7865 9.29644 14.7914C9.29644 17.3295 9.59487 19.7634 10.1544 21.8982H20.7521C21.3117 19.7634 21.6105 17.3295 21.6105 14.7914C21.6105 14.7865 21.6105 14.782 21.6105 14.7771H9.29644ZM15.4535 28.8381C16.2358 28.8381 17.0047 28.4904 17.7385 27.8055C18.4809 27.1122 19.151 26.1115 19.7304 24.8313C20.0564 24.1037 20.3324 23.3564 20.5569 22.5943H10.3493C10.5738 23.3564 10.8499 24.1037 11.1758 24.8313C11.7553 26.1115 12.426 27.1122 13.1678 27.8055C13.9023 28.4904 14.6712 28.8381 15.4535 28.8381ZM27.6143 22.5936H21.3099C21.0663 23.4512 20.7606 24.2914 20.395 25.1081C19.6707 26.7106 18.7978 27.9084 17.8373 28.6511C21.9021 28.0089 25.4076 25.7527 27.6143 22.5936ZM13.0693 28.6511C12.1091 27.9084 11.2374 26.7106 10.5115 25.1081C10.1461 24.2914 9.84054 23.4512 9.59705 22.5936H3.2926C5.49936 25.7527 9.00489 28.0089 13.0693 28.6511ZM2.83698 21.8982H9.40908C8.86182 19.7481 8.57208 17.3181 8.57208 14.7914C8.57208 14.7865 8.57208 14.782 8.57208 14.7771H0.82146C0.82146 14.782 0.82146 14.7865 0.82146 14.7914C0.818492 17.2908 1.51456 19.7452 2.83698 21.8982ZM0.840656 14.0818H8.58005C8.62967 11.787 8.91977 9.58889 9.42356 7.62617H2.8732C1.65593 9.58607 0.958027 11.8027 0.840656 14.0818ZM3.33353 6.93078H9.61443C9.85486 6.0935 10.1547 5.273 10.5119 4.47504C11.2363 2.87253 12.1091 1.67473 13.0696 0.932064C9.02987 1.57008 5.54246 3.80226 3.33353 6.93078ZM17.8377 0.931717C18.7978 1.67439 19.6696 2.87218 20.3954 4.47469C20.7526 5.27265 21.0525 6.09315 21.2929 6.93044H27.5734C25.3645 3.80226 21.8771 1.57008 17.8377 0.931717ZM28.0337 7.62617H21.4834C21.9872 9.58889 22.2773 11.788 22.3269 14.0818H30.0663C29.9489 11.8027 29.251 9.58607 28.0337 7.62617Z" fill="white"/>
</svg>
