<svg width="170" height="50" viewBox="0 0 170 50" fill="none" xmlns="http://www.w3.org/2000/svg">
<rect x="0.625" y="-0.625" width="135" height="38.2889" rx="19.1444" transform="matrix(1.25 0 0 -1.25 -0.15625 48.2383)" stroke="black"/>
<path d="M163.704 49.6445H6.2963C2.83491 49.6445 0 46.8805 0 43.5056V6.67231C0 3.29746 2.83491 0.533422 6.2963 0.533422H163.704C167.165 0.533422 170 3.29746 170 6.67231V43.5056C170 46.8805 167.165 49.6445 163.704 49.6445Z" fill="#FCF9F4"/>
<path d="M163.704 1.51718C166.619 1.51718 168.991 3.83001 168.991 6.67231V43.5056C168.991 46.3479 166.619 48.6608 163.704 48.6608H6.2963C3.38111 48.6608 1.00898 46.3479 1.00898 43.5056V6.67231C1.00898 3.83001 3.38111 1.51718 6.2963 1.51718H163.704ZM163.704 0.533422H6.2963C2.83491 0.533422 0 3.29746 0 6.67231V43.5056C0 46.8805 2.83491 49.6445 6.2963 49.6445H163.704C167.165 49.6445 170 46.8805 170 43.5056V6.67231C170 3.29746 167.165 0.533422 163.704 0.533422Z" fill="#FCF9F4"/>
<path d="M13.1416 9.78923C12.7717 10.1668 12.5576 10.7546 12.5576 11.5158V38.6681C12.5576 39.4293 12.7717 40.0171 13.1416 40.3947L13.2329 40.4775L28.8383 25.2684V24.9093L13.2329 9.70022L13.1416 9.78923Z" fill="url(#paint0_linear_170_730)"/>
<path d="M34.0349 30.3408L28.8389 25.2686V24.9094L34.0412 19.8372L34.1577 19.9032L40.3186 23.321C42.0768 24.2909 42.0768 25.8871 40.3186 26.8631L34.1577 30.2748L34.0349 30.3408Z" fill="url(#paint1_linear_170_730)"/>
<path d="M34.1571 30.2748L28.8383 25.089L13.1416 40.3947C13.7256 40.9933 14.6779 41.0654 15.7609 40.4669L34.1571 30.2748Z" fill="#E41C3B"/>
<path d="M34.1571 19.903L15.7609 9.71095C14.6779 9.11855 13.7256 9.19068 13.1416 9.78922L28.8383 25.0889L34.1571 19.903Z" fill="url(#paint2_linear_170_730)"/>
<path d="M59.7097 13.1103C59.7097 14.1355 59.3949 14.9565 58.7747 15.5689C58.0616 16.2948 57.1329 16.6601 55.9949 16.6601C54.9072 16.6601 53.9785 16.2887 53.2166 15.5566C52.4532 14.8138 52.0723 13.9022 52.0723 12.811C52.0723 11.7198 52.4532 10.8082 53.2166 10.0715C53.9785 9.33332 54.9072 8.96191 55.9949 8.96191C56.5363 8.96191 57.0526 9.07088 57.5453 9.27346C58.0364 9.47758 58.4362 9.75383 58.7259 10.0945L58.0679 10.7422C57.5626 10.1605 56.8748 9.87354 55.9949 9.87354C55.2015 9.87354 54.5137 10.1436 53.9297 10.6885C53.352 11.2348 53.0624 11.9423 53.0624 12.811C53.0624 13.6796 53.352 14.3933 53.9297 14.9397C54.5137 15.4783 55.2015 15.7546 55.9949 15.7546C56.837 15.7546 57.5453 15.4783 58.1041 14.9335C58.4725 14.5729 58.6818 14.0756 58.7369 13.4402H55.9949V12.5532H59.653C59.6971 12.745 59.7097 12.9307 59.7097 13.1103Z" fill="#2C2C2C" stroke="#2C2C2C" stroke-width="0.0503704" stroke-miterlimit="10"/>
<path d="M65.5115 10.0348H62.0753V12.3676H65.1731V13.2547H62.0753V15.5874H65.5115V16.4914H61.1025V9.13086H65.5115V10.0348Z" fill="#2C2C2C" stroke="#2C2C2C" stroke-width="0.0503704" stroke-miterlimit="10"/>
<path d="M69.6098 16.4914H68.637V10.0348H66.5293V9.13086H71.719V10.0348H69.6098V16.4914Z" fill="#2C2C2C" stroke="#2C2C2C" stroke-width="0.0503704" stroke-miterlimit="10"/>
<path d="M75.4736 16.4914V9.13086H76.4448V16.4914H75.4736Z" fill="#2C2C2C" stroke="#2C2C2C" stroke-width="0.0503704" stroke-miterlimit="10"/>
<path d="M80.7504 16.4914H79.7855V10.0348H77.6699V9.13086H82.8659V10.0348H80.7504V16.4914Z" fill="#2C2C2C" stroke="#2C2C2C" stroke-width="0.0503704" stroke-miterlimit="10"/>
<path d="M92.6907 15.5443C91.9462 16.2887 91.0238 16.6601 89.9235 16.6601C88.8169 16.6601 87.8945 16.2887 87.15 15.5443C86.407 14.8015 86.0371 13.8899 86.0371 12.811C86.0371 11.7321 86.407 10.8205 87.15 10.0777C87.8945 9.33332 88.8169 8.96191 89.9235 8.96191C91.0175 8.96191 91.9399 9.33332 92.6844 10.0838C93.4337 10.8327 93.8036 11.7382 93.8036 12.811C93.8036 13.8899 93.4337 14.8015 92.6907 15.5443ZM87.8693 14.9274C88.4297 15.4783 89.1113 15.7546 89.9235 15.7546C90.7294 15.7546 91.4173 15.4783 91.9714 14.9274C92.5302 14.3764 92.8135 13.6689 92.8135 12.811C92.8135 11.9531 92.5302 11.2456 91.9714 10.6946C91.4173 10.1437 90.7294 9.8674 89.9235 9.8674C89.1113 9.8674 88.4297 10.1437 87.8693 10.6946C87.3105 11.2456 87.0272 11.9531 87.0272 12.811C87.0272 13.6689 87.3105 14.3764 87.8693 14.9274Z" fill="#2C2C2C" stroke="#2C2C2C" stroke-width="0.0503704" stroke-miterlimit="10"/>
<path d="M95.168 16.4914V9.13086H96.3485L100.019 14.8554H100.062L100.019 13.4404V9.13086H100.99V16.4914H99.9768L96.1329 10.4845H96.0904L96.1329 11.9056V16.4914H95.168Z" fill="#2C2C2C" stroke="#2C2C2C" stroke-width="0.0503704" stroke-miterlimit="10"/>
<path d="M85.7993 27.2407C82.8416 27.2407 80.4254 29.4353 80.4254 32.4633C80.4254 35.4668 82.8416 37.6845 85.7993 37.6845C88.7633 37.6845 91.1795 35.4668 91.1795 32.4633C91.1795 29.4353 88.7633 27.2407 85.7993 27.2407ZM85.7993 35.6279C84.1764 35.6279 82.7802 34.3219 82.7802 32.4633C82.7802 30.5802 84.1764 29.2972 85.7993 29.2972C87.4222 29.2972 88.8247 30.5802 88.8247 32.4633C88.8247 34.3219 87.4222 35.6279 85.7993 35.6279ZM74.074 27.2407C71.11 27.2407 68.7001 29.4353 68.7001 32.4633C68.7001 35.4668 71.11 37.6845 74.074 37.6845C77.0364 37.6845 79.4479 35.4668 79.4479 32.4633C79.4479 29.4353 77.0364 27.2407 74.074 27.2407ZM74.074 35.6279C72.4496 35.6279 71.0487 34.3219 71.0487 32.4633C71.0487 30.5802 72.4496 29.2972 74.074 29.2972C75.6969 29.2972 77.0931 30.5802 77.0931 32.4633C77.0931 34.3219 75.6969 35.6279 74.074 35.6279ZM60.1214 28.8414V31.0606H65.5567C65.3977 32.3007 64.9727 33.2123 64.3211 33.8477C63.5277 34.615 62.2921 35.4668 60.1214 35.4668C56.7765 35.4668 54.1573 32.8348 54.1573 29.5735C54.1573 26.3122 56.7765 23.6801 60.1214 23.6801C61.9301 23.6801 63.246 24.3692 64.2172 25.2624L65.8212 23.6986C64.4627 22.4339 62.6557 21.4625 60.1214 21.4625C55.5346 21.4625 51.6797 25.1013 51.6797 29.5735C51.6797 34.0456 55.5346 37.6845 60.1214 37.6845C62.6006 37.6845 64.4627 36.8926 65.9266 35.4069C67.4267 33.9444 67.8942 31.8878 67.8942 30.2273C67.8942 29.7116 67.8501 29.2374 67.7714 28.8414H60.1214ZM117.175 30.5618C116.733 29.3939 115.368 27.2407 112.588 27.2407C109.834 27.2407 107.54 29.3571 107.54 32.4633C107.54 35.3885 109.81 37.6845 112.853 37.6845C115.313 37.6845 116.733 36.2219 117.317 35.3701L115.491 34.1838C114.882 35.0524 114.052 35.6279 112.853 35.6279C111.661 35.6279 110.807 35.0954 110.259 34.0456L117.422 31.1558L117.175 30.5618ZM109.872 32.3007C109.81 30.2871 111.476 29.2558 112.669 29.2558C113.604 29.2558 114.397 29.7116 114.662 30.3638L109.872 32.3007ZM104.049 37.3668H106.404V22.0196H104.049V37.3668ZM100.193 28.404H100.114C99.585 27.7932 98.5761 27.2407 97.2979 27.2407C94.6157 27.2407 92.1633 29.5366 92.1633 32.4802C92.1633 35.4069 94.6157 37.6845 97.2979 37.6845C98.5761 37.6845 99.585 37.1274 100.114 36.4981H100.193V37.2471C100.193 39.2438 99.0987 40.3165 97.3341 40.3165C95.8954 40.3165 95.0029 39.3036 94.6346 38.4518L92.5867 39.2852C93.177 40.6695 94.74 42.373 97.3341 42.373C100.095 42.373 102.425 40.7892 102.425 36.9355V27.5584H100.193V28.404ZM97.4994 35.6279C95.8765 35.6279 94.5181 34.3035 94.5181 32.4802C94.5181 30.6401 95.8765 29.2972 97.4994 29.2972C99.0987 29.2972 100.359 30.6401 100.359 32.4802C100.359 34.3035 99.0987 35.6279 97.4994 35.6279ZM128.2 22.0196H122.568V37.3668H124.917V31.5517H128.2C130.808 31.5517 133.366 29.7116 133.366 26.7849C133.366 23.8597 130.802 22.0196 128.2 22.0196ZM128.262 29.4169H124.917V24.1544H128.262C130.015 24.1544 131.016 25.574 131.016 26.7849C131.016 27.9728 130.015 29.4169 128.262 29.4169ZM142.779 27.2115C141.082 27.2115 139.318 27.9421 138.592 29.5612L140.676 30.413C141.125 29.5612 141.95 29.2849 142.822 29.2849C144.04 29.2849 145.276 29.9986 145.295 31.2586V31.4197C144.87 31.1803 143.96 30.8258 142.841 30.8258C140.596 30.8258 138.309 32.0306 138.309 34.2789C138.309 36.3355 140.147 37.6599 142.214 37.6599C143.794 37.6599 144.667 36.9647 145.214 36.1559H145.295V37.3422H147.563V31.455C147.563 28.734 145.479 27.2115 142.779 27.2115ZM142.496 35.6218C141.728 35.6218 140.657 35.2504 140.657 34.3219C140.657 33.134 141.992 32.6782 143.148 32.6782C144.182 32.6782 144.667 32.9007 145.295 33.1939C145.11 34.615 143.856 35.6218 142.496 35.6218ZM155.827 27.5476L153.127 34.2007H153.047L150.256 27.5476H147.723L151.917 36.845L149.524 42.0185H151.978L158.44 27.5476H155.827ZM134.657 37.3668H137.012V22.0196H134.657V37.3668Z" fill="#2C2C2C"/>
<defs>
<linearGradient id="paint0_linear_170_730" x1="27.4527" y1="38.9509" x2="6.85424" y2="17.8242" gradientUnits="userSpaceOnUse">
<stop stop-color="#00A0FF"/>
<stop offset="0.0066" stop-color="#00A1FF"/>
<stop offset="0.2601" stop-color="#00BEFF"/>
<stop offset="0.5122" stop-color="#00D2FF"/>
<stop offset="0.7604" stop-color="#00DFFF"/>
<stop offset="1" stop-color="#00E3FF"/>
</linearGradient>
<linearGradient id="paint1_linear_170_730" x1="42.6081" y1="25.0873" x2="12.1379" y2="25.0873" gradientUnits="userSpaceOnUse">
<stop stop-color="#FFE000"/>
<stop offset="0.4087" stop-color="#FFBD00"/>
<stop offset="0.7754" stop-color="#FFA500"/>
<stop offset="1" stop-color="#FF9C00"/>
</linearGradient>
<linearGradient id="paint2_linear_170_730" x1="9.19042" y1="49.4281" x2="21.6638" y2="36.635" gradientUnits="userSpaceOnUse">
<stop stop-color="#32A071"/>
<stop offset="0.0685" stop-color="#2DA771"/>
<stop offset="0.4762" stop-color="#15CF74"/>
<stop offset="0.8009" stop-color="#06E775"/>
<stop offset="1" stop-color="#00F076"/>
</linearGradient>
</defs>
</svg>
