<svg width="201" height="97" viewBox="0 0 201 97" fill="none" xmlns="http://www.w3.org/2000/svg">
<g clip-path="url(#clip0_170_691)">
<path d="M89.5827 34.4885C89.5827 31.7169 86.4816 28.7869 83.5487 28.7869C82.8917 28.7869 82.3425 28.9136 81.8664 29.1733C71.9632 34.3079 60.8729 45.8695 57.1465 54.9445C56.8862 55.5495 56.7656 56.1957 56.7656 56.9781C56.7656 59.3031 58.1654 61.5837 59.5938 61.5837C60.054 61.5837 60.7269 61.3303 61.3078 60.114C62.3743 57.8207 63.4058 55.9962 64.5549 54.3839C69.8048 52.8096 75.4262 51.5838 80.0286 51.0041C79.981 52.6195 79.8921 54.273 79.7588 56.05C79.6319 57.3994 80.2413 58.923 81.4284 60.2248C82.5108 61.4127 83.8661 62.1792 84.8755 62.1792C85.4087 62.1792 86.3133 61.9448 86.3768 60.3642C86.4276 56.6708 86.5895 53.4399 86.8688 50.4941C88.3638 50.1552 89.0335 49.0877 89.0335 48.1596C89.0335 47.2315 88.3987 46.3731 87.4021 45.9899C88.0273 41.7453 88.5479 39.3792 89.4874 35.2582C89.5509 34.9351 89.5827 34.6912 89.5827 34.4948V34.4885ZM80.273 45.6509H78.4193C75.8071 45.6509 73.7725 45.7111 71.9061 45.8473C74.7818 42.5404 77.7147 40.0539 81.33 37.8556C80.8126 40.3073 80.4762 42.8001 80.2762 45.6509H80.273Z" fill="#E31837"/>
<path d="M117.049 28.7869C116.392 28.7869 115.843 28.9136 115.366 29.1733C105.463 34.3079 94.3729 45.8695 90.6465 54.9445C90.3862 55.5495 90.2656 56.1957 90.2656 56.9781C90.2656 59.3031 91.6654 61.5837 93.0938 61.5837C93.554 61.5837 94.2269 61.3303 94.8078 60.114C95.8743 57.8207 96.9058 55.9962 98.0549 54.3839C103.305 52.8096 108.926 51.5838 113.529 51.0041C113.481 52.6195 113.392 54.273 113.259 56.05C113.132 57.3994 113.741 58.923 114.928 60.2248C116.011 61.4127 117.366 62.1792 118.375 62.1792C118.909 62.1792 119.813 61.9448 119.877 60.3642C119.928 56.6708 120.089 53.4399 120.369 50.4941C121.864 50.1552 122.534 49.0877 122.534 48.1596C122.534 47.2315 121.899 46.3731 120.902 45.9899C121.527 41.7453 122.048 39.3792 122.987 35.2582C123.051 34.9351 123.083 34.6912 123.083 34.4948C123.083 31.7232 119.982 28.7932 117.049 28.7932V28.7869ZM113.773 45.6541H111.919C109.307 45.6541 107.272 45.7143 105.406 45.8505C108.282 42.5436 111.215 40.057 114.83 37.8587C114.313 40.3104 113.976 42.8033 113.776 45.6541H113.773Z" fill="#E31837"/>
<path d="M177.074 36.3795C177.366 36.0881 177.411 35.5528 177.411 35.2614C177.411 34.1812 176.893 32.5658 176.125 31.2449C175.592 30.3295 174.49 28.79 173.107 28.79C172.253 28.79 171.618 29.414 171.139 30.0539C170.58 30.8046 170.072 31.6092 169.571 32.3979C166.308 37.5103 163.432 42.9268 161.499 48.6886C161.048 50.0348 160.648 51.4 160.315 52.7811C159.801 54.9034 159.28 56.9718 160.188 59.0655C160.74 60.3389 161.991 62.1792 163.578 62.1792C164.067 62.1792 164.924 61.9448 165.178 60.3737C166.527 51.9607 171.154 43.6807 176.455 37.1017C176.655 36.8546 176.858 36.6107 177.081 36.3795H177.074Z" fill="#E31837"/>
<path d="M199.68 52.0557C198.502 50.9661 197.033 50.9312 195.516 50.9471C191.783 50.9851 188.383 51.0864 184.835 51.6978C184.498 51.7548 181.584 52.2869 181.394 52.5435C183.511 47.279 185.816 42.6703 188.533 38.8217C189.209 37.8651 189.869 36.9243 190.586 36.0469C191.218 35.2677 191.872 34.4631 192.43 33.6079C192.64 33.2975 192.757 32.9174 192.757 32.5689C192.757 30.6937 190.123 28.7869 188.228 28.7869C187.457 28.7869 186.93 29.091 186.542 29.6104C183.835 33.2309 181.448 37.0162 179.337 41.0136C177.915 43.7029 176.382 46.389 175.179 49.1859C174.601 50.5258 174.065 51.8815 173.602 53.2626C173.379 53.9277 173.145 54.6056 172.992 55.293C172.894 55.7332 172.84 56.2369 172.84 56.712C172.84 58.6252 173.671 60.3832 174.868 61.3778C175.363 61.7896 175.979 62.0557 176.617 62.1475C177.261 62.2394 177.833 62.1064 178.442 61.91C178.671 61.8371 178.899 61.7611 179.128 61.6882C185.635 59.5787 191.253 57.7573 198.36 57.2949C200.309 57.184 201.004 55.955 201.004 54.8432C201.004 53.8676 200.512 52.8254 199.683 52.0589L199.68 52.0557Z" fill="#E31837"/>
<path d="M158.896 34.6625C158.677 33.1864 157.887 32.0398 157.271 31.3461C157.04 31.0959 156.801 30.8583 156.554 30.6429C156.506 30.6049 156.478 30.5827 156.478 30.5827C154.83 29.1637 152.869 28.4636 150.561 28.4636C145.873 28.4636 142.201 28.546 137.608 29.6103C135.751 30.0221 135.091 31.571 135.091 32.8855C135.091 33.4145 135.173 33.9086 135.338 34.3584C135.284 34.4218 135.199 34.5358 135.097 34.6784C134.614 35.3214 133.475 36.8608 132.313 38.5301C131.805 39.2333 129.879 42.2488 129.561 42.8602C126.778 47.7762 124.772 53.0248 124.356 55.3118C124.099 56.7055 124.841 58.8816 125.921 60.0853C126.025 60.2025 126.14 60.3197 126.257 60.4306C127.416 61.5265 128.961 62.1284 130.555 62.1727C131.167 62.1886 131.901 62.1569 132.764 62.0334C132.764 62.0334 132.764 62.0334 132.764 62.0397C137.544 61.422 142.461 59.9333 142.699 59.8541C144.645 59.1984 152.539 56.3951 156.132 52.7999C158.706 50.2564 157.351 46.8386 156.77 45.7046C155.9 44.0638 154.719 42.9393 153.085 42.1443C154.767 41.1528 156.119 40.1962 157.147 39.284C158.455 38.1183 159.153 36.3952 158.896 34.6625ZM150.825 48.0676C148.961 51.2953 135.183 55.0489 130.793 55.2801C131.577 53.0692 132.37 51.4284 133.142 49.8414C133.742 49.6482 139.972 47.7192 142.75 46.7214C144.857 46.5409 147.279 46.4743 149.317 47.1205C150.06 47.3549 150.831 47.621 150.907 47.8015C150.926 47.8491 150.885 47.9346 150.821 48.0644L150.825 48.0676ZM142.661 40.0917C142.366 40.2152 142.077 40.3324 141.797 40.4496H141.794C141.131 40.7411 140.331 40.9375 139.553 41.1307C139.217 41.213 138.89 41.2922 138.588 41.3777C139.033 40.8107 139.522 40.1614 140.029 39.4835C140.975 38.2229 142.048 36.7975 143.105 35.5494C145.368 34.9223 148.568 34.5643 151.894 34.5643C152.183 34.5643 152.542 34.5928 152.929 34.6467C150.298 36.9527 145.902 38.7613 142.661 40.0949V40.0917Z" fill="#E31837"/>
<path d="M111.713 90.2881C108.256 89.3441 100.502 86.3413 94.4078 83.8611C90.1322 82.0366 85.4282 79.9523 80.6893 77.8111C71.167 73.3638 42.5207 60.2153 30.9035 54.8843C33.1984 48.8596 36.4169 42.2869 39.737 36.1229C62.2859 28.9896 126.622 8.62219 129.082 7.76695C130.469 7.28548 131.294 6.53477 131.465 5.60351C131.665 4.5107 130.958 3.13598 129.615 2.01467C127.863 0.548093 124.654 -0.728431 121.394 0.487909L53.5126 22.721H53.5095L50.2084 23.8043C50.2084 23.8011 50.2147 23.7948 50.2179 23.7916L45.9487 25.1758C49.5196 19.1638 52.5414 14.4885 53.792 12.588C54.2935 11.8246 54.4839 10.8965 54.3125 10.0001C54.1316 9.04664 53.7602 7.80813 53.1095 6.44291C51.8367 3.77266 50.2274 2.15721 49.1959 1.73909C49.1959 1.73909 49.1927 1.73909 49.1895 1.73909C48.9197 1.6314 48.615 1.67574 48.3769 1.84045C47.2025 2.66402 44.5426 7.07642 44.5426 7.07642C40.6924 14.0799 36.4931 21.6915 32.4525 29.5946C24.7553 32.1603 9.50689 37.2442 7.57069 37.9126C4.30136 39.0402 -0.6058 41.891 0.0639358 46.0215C0.340083 47.7288 1.40341 49.2841 2.62544 50.4656C4.55846 52.3376 7.0057 53.5286 9.39897 54.6974C11.7192 55.8282 15.9503 57.903 19.2228 59.5089C16.7565 66.5124 14.8806 73.4398 13.9189 80.0885C13.4015 83.9118 15.6329 87.4468 17.7024 89.3124C18.3499 89.8953 18.9467 90.2976 19.4545 90.5636C20.2893 91.0039 21.3209 90.4844 21.4637 89.5532C21.4637 89.5437 21.4637 89.5342 21.4669 89.5247C22.9556 78.9197 25.333 70.7411 27.8342 63.6204L30.8305 65.0331C30.8305 65.0331 30.8369 65.0141 30.84 65.0046C31.8145 65.4766 32.7921 65.9486 33.7761 66.4237C63.5872 80.7949 96.7153 95.562 104.46 96.9114C106.203 97.225 108.275 96.7657 110.151 95.6571C111.78 94.6941 113.233 92.971 113.427 91.932C113.583 91.099 112.986 90.6428 111.713 90.2944V90.2881ZM22.5112 50.909C18.68 48.9705 13.1762 46.1672 12.1509 45.6097C11.8748 45.4608 11.7922 45.1251 11.9668 44.8653C12.17 44.5201 21.4606 41.6978 27.3644 39.9366C25.6535 43.573 24.0221 47.241 22.5144 50.909H22.5112Z" fill="#E31837"/>
<path d="M119.902 71.9543C120.235 71.7769 120.616 71.6882 121.045 71.685C121.543 71.685 121.997 71.8022 122.403 72.0461C122.81 72.29 123.13 72.6385 123.368 73.0883C123.606 73.5412 123.727 74.0639 123.73 74.6594C123.733 75.2549 123.619 75.7839 123.384 76.2463C123.149 76.7088 122.832 77.0636 122.429 77.3201C122.026 77.5735 121.575 77.7034 121.073 77.7066C120.638 77.7066 120.254 77.6242 119.927 77.4532C119.601 77.2821 119.337 77.0604 119.137 76.788V77.621L117.664 77.6274L117.623 69.8352L119.099 69.8289L119.115 72.6416C119.302 72.3597 119.566 72.1317 119.896 71.9543H119.902ZM122 73.7598C121.854 73.5032 121.664 73.31 121.429 73.1801C121.194 73.0503 120.937 72.9837 120.664 72.9837C120.397 72.9837 120.146 73.0534 119.912 73.1928C119.677 73.3322 119.486 73.5317 119.343 73.7915C119.201 74.0512 119.131 74.3585 119.131 74.7101C119.131 75.0617 119.207 75.3657 119.353 75.6255C119.499 75.8852 119.689 76.0816 119.924 76.2178C120.162 76.354 120.413 76.4205 120.68 76.4205C120.953 76.4205 121.21 76.3477 121.445 76.2051C121.68 76.0626 121.867 75.863 122.013 75.6033C122.156 75.3436 122.225 75.0331 122.225 74.6752C122.225 74.3236 122.149 74.0227 122.003 73.7661L122 73.7598Z" fill="#E31837"/>
<path d="M124.984 73.085C125.215 72.6289 125.536 72.2742 125.939 72.0271C126.342 71.78 126.793 71.6533 127.294 71.6501C127.729 71.6501 128.113 71.7325 128.44 71.9067C128.767 72.0809 129.031 72.2995 129.231 72.5656V71.7325L130.713 71.7262L130.745 77.5608L129.256 77.5671V76.7151C129.062 76.9906 128.802 77.2187 128.469 77.3993C128.136 77.5798 127.751 77.6717 127.313 77.6748C126.821 77.6748 126.371 77.5545 125.964 77.3042C125.558 77.054 125.238 76.6992 125 76.2399C124.761 75.7806 124.641 75.2548 124.638 74.6562C124.638 74.067 124.749 73.5443 124.984 73.085ZM129.024 73.7312C128.881 73.4747 128.691 73.2814 128.453 73.1452C128.212 73.009 127.955 72.9425 127.682 72.9425C127.409 72.9425 127.155 73.0122 126.923 73.1452C126.691 73.2783 126.504 73.4747 126.361 73.7312C126.218 73.9878 126.149 74.2919 126.149 74.6435C126.149 74.9951 126.225 75.3023 126.371 75.5652C126.517 75.8281 126.707 76.0277 126.942 76.1671C127.18 76.3065 127.431 76.3761 127.698 76.373C127.97 76.373 128.228 76.3033 128.466 76.1639C128.704 76.0245 128.894 75.8282 129.034 75.5716C129.173 75.315 129.243 75.0078 129.24 74.6498C129.24 74.2919 129.167 73.9846 129.024 73.7281V73.7312Z" fill="#E31837"/>
<path d="M137.299 72.2678C137.731 72.7049 137.95 73.3162 137.953 74.1018L137.972 77.5228L136.496 77.5291L136.481 74.3077C136.481 73.8452 136.36 73.4873 136.128 73.2402C135.893 72.9931 135.576 72.8696 135.176 72.8696C134.767 72.8696 134.446 72.9995 134.211 73.2497C133.976 73.5 133.862 73.8579 133.862 74.3204L133.878 77.5418L132.402 77.5481L132.37 71.7135L133.846 71.7071V72.4325C134.046 72.1791 134.297 71.9795 134.602 71.8338C134.906 71.6881 135.243 71.6153 135.608 71.6121C136.303 71.6089 136.868 71.8243 137.299 72.2614V72.2678Z" fill="#E31837"/>
<path d="M140.66 77.2315C140.21 76.9844 139.854 76.6328 139.594 76.1798C139.334 75.7237 139.203 75.1979 139.2 74.6024C139.197 74.0069 139.327 73.4779 139.587 73.0218C139.848 72.5657 140.206 72.2077 140.664 71.9575C141.121 71.7073 141.628 71.5774 142.19 71.5742C142.752 71.5742 143.263 71.6946 143.723 71.9417C144.184 72.1887 144.545 72.5403 144.809 72.9933C145.076 73.4494 145.209 73.9752 145.212 74.5707C145.215 75.1662 145.082 75.6952 144.815 76.1513C144.545 76.6075 144.184 76.9654 143.723 77.2156C143.263 77.4659 142.749 77.5957 142.181 77.5989C141.619 77.5989 141.111 77.4785 140.66 77.2315ZM142.93 76.1133C143.165 75.9834 143.352 75.7871 143.492 75.5273C143.631 75.2676 143.701 74.9508 143.698 74.5771C143.698 74.0227 143.546 73.5983 143.254 73.3005C142.962 73.0028 142.603 72.8571 142.181 72.8571C141.759 72.8571 141.406 73.0091 141.124 73.31C140.841 73.611 140.702 74.0386 140.705 74.5929C140.705 75.1472 140.848 75.5748 141.127 75.8694C141.406 76.1672 141.759 76.3129 142.181 76.3129C142.447 76.3129 142.698 76.2464 142.933 76.1133H142.93Z" fill="#E31837"/>
<path d="M150.732 78.4161C150.735 79.0623 150.577 79.5279 150.259 79.813C149.942 80.0981 149.482 80.2438 148.885 80.2469H148.231L148.225 78.9957H148.647C148.872 78.9926 149.031 78.9482 149.12 78.8595C149.212 78.7709 149.256 78.6283 149.256 78.4319L149.221 71.628L150.697 71.6217L150.732 78.4129V78.4161ZM149.304 70.6904C149.129 70.5257 149.044 70.323 149.04 70.0759C149.04 69.8288 149.123 69.623 149.294 69.4582C149.466 69.2935 149.685 69.208 149.951 69.208C150.212 69.208 150.427 69.2872 150.596 69.4519C150.764 69.6166 150.85 69.8225 150.853 70.0664C150.853 70.3135 150.77 70.5194 150.602 70.6841C150.434 70.8488 150.221 70.9343 149.961 70.9343C149.694 70.9343 149.472 70.8551 149.301 70.6904H149.304Z" fill="#E31837"/>
<path d="M153.471 77.1648C153.02 76.9177 152.665 76.5661 152.404 76.1132C152.144 75.6571 152.014 75.1312 152.011 74.5357C152.008 73.9402 152.138 73.4113 152.398 72.9551C152.658 72.499 153.017 72.1411 153.474 71.8908C153.931 71.6406 154.439 71.5107 155.001 71.5076C155.563 71.5076 156.074 71.6279 156.534 71.875C156.991 72.1221 157.356 72.4737 157.619 72.9266C157.886 73.3828 158.019 73.9086 158.023 74.5041C158.026 75.0996 157.892 75.6286 157.626 76.0847C157.356 76.5408 156.994 76.8987 156.534 77.149C156.074 77.3992 155.559 77.5291 154.991 77.5323C154.429 77.5323 153.922 77.4119 153.471 77.1648ZM155.74 76.0467C155.975 75.9168 156.163 75.7204 156.302 75.4607C156.442 75.2009 156.512 74.8842 156.508 74.5104C156.508 73.9561 156.356 73.5316 156.064 73.2339C155.772 72.9361 155.413 72.7904 154.991 72.7904C154.569 72.7904 154.217 72.9425 153.934 73.2434C153.652 73.5443 153.512 73.9719 153.512 74.5262C153.512 75.0806 153.655 75.5082 153.934 75.8028C154.214 76.1005 154.566 76.2462 154.988 76.2462C155.255 76.2462 155.505 76.1797 155.74 76.0467Z" fill="#E31837"/>
<path d="M161.572 71.7358C161.905 71.5584 162.286 71.4697 162.715 71.4665C163.213 71.4665 163.667 71.5837 164.073 71.8276C164.479 72.0715 164.8 72.42 165.038 72.8698C165.276 73.3227 165.397 73.8454 165.4 74.4409C165.403 75.0364 165.289 75.5654 165.054 76.0278C164.819 76.4903 164.502 76.8451 164.099 77.1016C163.695 77.355 163.245 77.4849 162.743 77.4881C162.308 77.4881 161.924 77.4057 161.597 77.2378C161.27 77.0668 161.007 76.8451 160.807 76.5726V77.4057L159.334 77.412L159.293 69.6199L160.769 69.6135L160.785 72.4263C160.972 72.1444 161.236 71.9163 161.566 71.739L161.572 71.7358ZM163.67 73.5413C163.524 73.2847 163.334 73.0915 163.096 72.9616C162.861 72.8286 162.604 72.7652 162.331 72.7652C162.064 72.7652 161.813 72.8381 161.578 72.9743C161.343 73.1137 161.156 73.3132 161.013 73.573C160.87 73.8327 160.801 74.14 160.801 74.4916C160.801 74.8432 160.877 75.1472 161.023 75.407C161.169 75.6667 161.359 75.8631 161.594 75.9993C161.829 76.1355 162.083 76.202 162.35 76.202C162.623 76.202 162.88 76.1292 163.115 75.9866C163.349 75.8441 163.537 75.6445 163.683 75.3848C163.826 75.1251 163.895 74.8146 163.895 74.4567C163.895 74.1051 163.819 73.801 163.673 73.5476L163.67 73.5413Z" fill="#E31837"/>
<path d="M171.618 71.6945C171.923 71.5171 172.272 71.4285 172.666 71.4253L172.675 72.9742H172.285C171.821 72.9774 171.472 73.0883 171.237 73.3068C171.002 73.5254 170.888 73.9055 170.891 74.4471L170.907 77.355L169.431 77.3613L169.399 71.5267L170.875 71.5203V72.4262C171.069 72.1158 171.317 71.8719 171.621 71.6945H171.618Z" fill="#E31837"/>
<path d="M179.28 74.8335L175.007 74.8557C175.046 75.277 175.195 75.6064 175.455 75.844C175.715 76.0815 176.036 76.1987 176.417 76.1956C176.966 76.1956 177.356 75.9548 177.585 75.4829L179.178 75.4734C179.013 76.0372 178.689 76.4997 178.213 76.8639C177.737 77.2282 177.15 77.4119 176.455 77.4151C175.893 77.4151 175.385 77.2947 174.938 77.0508C174.49 76.8037 174.141 76.4521 173.887 75.9992C173.636 75.543 173.506 75.0172 173.503 74.4217C173.503 73.8167 173.62 73.2878 173.865 72.8285C174.109 72.3723 174.452 72.0176 174.893 71.7705C175.334 71.5234 175.845 71.3967 176.42 71.3936C176.975 71.3936 177.474 71.5076 177.915 71.7452C178.356 71.9827 178.699 72.3185 178.943 72.7556C179.188 73.1927 179.312 73.6964 179.315 74.2634C179.315 74.4756 179.302 74.6625 179.277 74.8335H179.28ZM177.788 73.8516C177.778 73.4715 177.639 73.1706 177.372 72.9425C177.102 72.7176 176.775 72.6036 176.388 72.6067C176.023 72.6067 175.715 72.7208 175.468 72.9425C175.22 73.1642 175.068 73.4715 175.014 73.8674L177.788 73.8516Z" fill="#E31837"/>
<path d="M180.572 72.7938C180.803 72.3377 181.124 71.9829 181.527 71.7358C181.93 71.4888 182.381 71.3621 182.882 71.3589C183.317 71.3589 183.701 71.4412 184.028 71.6155C184.355 71.7897 184.619 72.0082 184.819 72.2743V71.4412L186.301 71.4349L186.333 77.2695L184.844 77.2759V76.4238C184.65 76.6994 184.39 76.9274 184.057 77.108C183.723 77.2885 183.339 77.3804 182.901 77.3836C182.409 77.3836 181.959 77.2632 181.552 77.013C181.146 76.7627 180.825 76.408 180.587 75.9487C180.349 75.4894 180.229 74.9636 180.226 74.3649C180.226 73.7757 180.337 73.2531 180.572 72.7938ZM184.612 73.44C184.469 73.1834 184.279 72.9902 184.041 72.854C183.8 72.7178 183.543 72.6512 183.27 72.6512C182.997 72.6512 182.743 72.7209 182.511 72.854C182.279 72.987 182.092 73.1834 181.949 73.44C181.806 73.6965 181.736 74.0006 181.736 74.3522C181.736 74.7038 181.813 75.0111 181.959 75.274C182.105 75.5369 182.295 75.7364 182.533 75.8758C182.771 76.0152 183.022 76.0849 183.289 76.0817C183.565 76.0817 183.819 76.012 184.057 75.8727C184.295 75.7333 184.485 75.5369 184.625 75.2803C184.765 75.0237 184.834 74.7165 184.831 74.3586C184.831 74.0006 184.758 73.6934 184.615 73.4368L184.612 73.44Z" fill="#E31837"/>
<path d="M187.936 72.7556C188.168 72.2995 188.488 71.9447 188.895 71.6977C189.301 71.4506 189.755 71.3239 190.253 71.3207C190.634 71.3207 190.996 71.3999 191.342 71.5615C191.688 71.7262 191.964 71.9416 192.167 72.214L192.151 69.4455L193.649 69.4392L193.691 77.2314L192.193 77.2377V76.373C192.005 76.6612 191.751 76.8956 191.421 77.073C191.091 77.2504 190.707 77.3391 190.272 77.3423C189.78 77.3423 189.329 77.2219 188.92 76.9717C188.511 76.7214 188.187 76.3666 187.949 75.9074C187.711 75.4481 187.59 74.9222 187.587 74.3236C187.587 73.7344 187.698 73.2118 187.933 72.7525L187.936 72.7556ZM191.977 73.4018C191.834 73.1452 191.643 72.952 191.405 72.8158C191.164 72.6796 190.907 72.6131 190.634 72.6131C190.361 72.6131 190.107 72.6828 189.875 72.8158C189.644 72.9489 189.456 73.1452 189.314 73.4018C189.171 73.6584 189.101 73.9625 189.101 74.3141C189.101 74.6657 189.177 74.9729 189.323 75.2358C189.469 75.4987 189.66 75.6983 189.894 75.8377C190.133 75.977 190.383 76.0467 190.65 76.0436C190.923 76.0436 191.18 75.9739 191.418 75.8345C191.656 75.6951 191.847 75.4987 191.986 75.2422C192.126 74.9856 192.196 74.6783 192.193 74.3204C192.193 73.9625 192.12 73.6552 191.977 73.3987V73.4018Z" fill="#E31837"/>
<path d="M200.915 71.3618L197.341 79.9744L195.77 79.9839L197.02 77.0697L194.649 71.3967L196.306 71.3872L197.836 75.4543L199.344 71.3713L200.915 71.3618Z" fill="#E31837"/>
</g>
<defs>
<clipPath id="clip0_170_691">
<rect width="201" height="97" fill="white"/>
</clipPath>
</defs>
</svg>
